<svg xmlns="http://www.w3.org/2000/svg" version="1.1" xmlns:xlink="http://www.w3.org/1999/xlink" xmlns:svgjs="http://svgjs.dev/svgjs" viewBox="0 0 18.651274263633226 17.335449544675498"><g transform="matrix(1,0,0,1,1.4982436381642703,13.896355906511229)"><g><path d=" M 1.5647616577148435 0.9884999999999999 L 1.5647616577148435 1.0574999999999999 L 0.8402616577148436 1.0574999999999999 L 0.8402616577148436 0.00749999999999984 L 1.5422616577148436 0.00749999999999984 L 1.5422616577148436 0.0764999999999999 L 0.9167616577148436 0.0764999999999999 L 0.9167616577148436 0.4904999999999998 L 1.4762616577148435 0.4904999999999998 L 1.4762616577148435 0.5579999999999998 L 0.9167616577148436 0.5579999999999998 L 0.9167616577148436 0.9884999999999999 L 1.5647616577148435 0.9884999999999999 M 1.8587711791992187 0.00749999999999984 L 2.2742711791992187 0.00749999999999984 Q 2.4377711791992187 0.00749999999999984 2.5645211791992186 0.07499999999999984 Q 2.6912711791992185 0.14249999999999985 2.7617711791992186 0.2617499999999998 Q 2.8322711791992186 0.3809999999999999 2.8322711791992186 0.5324999999999999 Q 2.8322711791992186 0.6839999999999999 2.7617711791992186 0.8032499999999998 Q 2.6912711791992185 0.9224999999999999 2.5645211791992186 0.9899999999999999 Q 2.4377711791992187 1.0574999999999999 2.2742711791992187 1.0574999999999999 L 1.8587711791992187 1.0574999999999999 L 1.8587711791992187 0.00749999999999984 M 2.2682711791992185 0.9884999999999999 Q 2.4137711791992187 0.9884999999999999 2.5247711791992185 0.9307499999999999 Q 2.6357711791992187 0.8729999999999999 2.6957711791992187 0.7694999999999999 Q 2.7557711791992188 0.6659999999999999 2.7557711791992188 0.5324999999999999 Q 2.7557711791992188 0.3989999999999999 2.6957711791992187 0.2954999999999999 Q 2.6357711791992187 0.19199999999999984 2.5247711791992185 0.13424999999999987 Q 2.4137711791992187 0.0764999999999999 2.2682711791992185 0.0764999999999999 L 1.9352711791992188 0.0764999999999999 L 1.9352711791992188 0.9884999999999999 L 2.2682711791992185 0.9884999999999999 M 3.214004333496094 0.9494999999999999 Q 3.1037543334960938 0.8339999999999999 3.1037543334960938 0.6119999999999999 L 3.1037543334960938 0.00749999999999984 L 3.180254333496094 0.00749999999999984 L 3.180254333496094 0.6089999999999999 Q 3.180254333496094 0.8024999999999999 3.268754333496094 0.8984999999999999 Q 3.357254333496094 0.9944999999999999 3.5252543334960937 0.9944999999999999 Q 3.691754333496094 0.9944999999999999 3.780254333496094 0.8984999999999999 Q 3.868754333496094 0.8024999999999999 3.868754333496094 0.6089999999999999 L 3.868754333496094 0.00749999999999984 L 3.945254333496094 0.00749999999999984 L 3.945254333496094 0.6119999999999999 Q 3.945254333496094 0.8339999999999999 3.834254333496094 0.9494999999999999 Q 3.7232543334960937 1.065 3.5237543334960937 1.065 Q 3.3242543334960937 1.065 3.214004333496094 0.9494999999999999 M 4.883577575683594 0.9959999999999999 Q 4.759827575683594 0.9269999999999998 4.688577575683594 0.8054999999999999 Q 4.617327575683594 0.6839999999999999 4.617327575683594 0.5324999999999999 Q 4.617327575683594 0.3809999999999999 4.688577575683594 0.25949999999999984 Q 4.759827575683594 0.1379999999999999 4.883577575683594 0.06899999999999984 Q 5.007327575683594 -2.220446049250313e-16 5.161827575683594 -2.220446049250313e-16 Q 5.275827575683594 -2.220446049250313e-16 5.371827575683594 0.03674999999999984 Q 5.467827575683594 0.0734999999999999 5.535327575683594 0.14549999999999985 L 5.487327575683594 0.19499999999999984 Q 5.361327575683594 0.0704999999999999 5.164827575683594 0.0704999999999999 Q 5.032827575683594 0.0704999999999999 4.924827575683594 0.13049999999999984 Q 4.816827575683594 0.1904999999999999 4.755327575683594 0.2962499999999999 Q 4.693827575683594 0.4019999999999999 4.693827575683594 0.5324999999999999 Q 4.693827575683594 0.6629999999999998 4.755327575683594 0.7687499999999998 Q 4.816827575683594 0.8744999999999998 4.924827575683594 0.9344999999999999 Q 5.032827575683594 0.9944999999999999 5.164827575683594 0.9944999999999999 Q 5.359827575683594 0.9944999999999999 5.487327575683594 0.8684999999999998 L 5.535327575683594 0.9179999999999999 Q 5.467827575683594 0.9899999999999999 5.371077575683594 1.0274999999999999 Q 5.274327575683595 1.065 5.161827575683594 1.065 Q 5.007327575683594 1.065 4.883577575683594 0.9959999999999999 M 5.950810729980469 0.9952499999999999 Q 5.826310729980468 0.9254999999999999 5.755060729980468 0.8039999999999998 Q 5.683810729980468 0.6824999999999999 5.683810729980468 0.5324999999999999 Q 5.683810729980468 0.38249999999999984 5.755060729980468 0.2609999999999999 Q 5.826310729980468 0.13949999999999985 5.950810729980469 0.06974999999999987 Q 6.075310729980469 -2.220446049250313e-16 6.229810729980469 -2.220446049250313e-16 Q 6.384310729980469 -2.220446049250313e-16 6.5088107299804685 0.06899999999999984 Q 6.633310729980469 0.1379999999999999 6.704560729980469 0.25949999999999984 Q 6.775810729980469 0.3809999999999999 6.775810729980469 0.5324999999999999 Q 6.775810729980469 0.6839999999999999 6.704560729980469 0.8054999999999999 Q 6.633310729980469 0.9269999999999998 6.5088107299804685 0.9959999999999999 Q 6.384310729980469 1.065 6.229810729980469 1.065 Q 6.075310729980469 1.065 5.950810729980469 0.9952499999999999 M 6.468310729980469 0.9344999999999999 Q 6.574810729980468 0.8744999999999998 6.636310729980469 0.7687499999999998 Q 6.697810729980469 0.6629999999999998 6.697810729980469 0.5324999999999999 Q 6.697810729980469 0.4019999999999999 6.636310729980469 0.2962499999999999 Q 6.574810729980468 0.1904999999999999 6.468310729980469 0.13049999999999984 Q 6.361810729980469 0.0704999999999999 6.229810729980469 0.0704999999999999 Q 6.097810729980469 0.0704999999999999 5.990560729980468 0.13049999999999984 Q 5.883310729980469 0.1904999999999999 5.821810729980469 0.2962499999999999 Q 5.760310729980469 0.4019999999999999 5.760310729980469 0.5324999999999999 Q 5.760310729980469 0.6629999999999998 5.821810729980469 0.7687499999999998 Q 5.883310729980469 0.8744999999999998 5.990560729980468 0.9344999999999999 Q 6.097810729980469 0.9944999999999999 6.229810729980469 0.9944999999999999 Q 6.361810729980469 0.9944999999999999 6.468310729980469 0.9344999999999999 M 7.91132977294922 0.00749999999999984 L 7.91132977294922 1.0574999999999999 L 7.848329772949219 1.0574999999999999 L 7.132829772949219 0.14549999999999985 L 7.132829772949219 1.0574999999999999 L 7.056329772949219 1.0574999999999999 L 7.056329772949219 0.00749999999999984 L 7.120829772949219 0.00749999999999984 L 7.834829772949219 0.9194999999999999 L 7.834829772949219 0.00749999999999984 L 7.91132977294922 0.00749999999999984 M 8.348618591308595 1.0252499999999998 Q 8.244368591308595 0.9854999999999998 8.185868591308594 0.9224999999999999 L 8.220368591308596 0.8654999999999999 Q 8.275868591308594 0.9239999999999999 8.369618591308594 0.9607499999999999 Q 8.463368591308594 0.9974999999999998 8.566868591308594 0.9974999999999998 Q 8.716868591308595 0.9974999999999998 8.793368591308594 0.9404999999999999 Q 8.869868591308595 0.8834999999999998 8.869868591308595 0.7919999999999998 Q 8.869868591308595 0.7214999999999998 8.829368591308596 0.6794999999999999 Q 8.788868591308596 0.6375 8.728868591308595 0.6149999999999999 Q 8.668868591308595 0.5924999999999998 8.566868591308594 0.5684999999999999 Q 8.451368591308595 0.5399999999999999 8.381618591308595 0.5129999999999999 Q 8.311868591308595 0.4859999999999999 8.263118591308595 0.42974999999999985 Q 8.214368591308595 0.37349999999999983 8.214368591308595 0.2789999999999999 Q 8.214368591308595 0.2024999999999999 8.254868591308595 0.13874999999999982 Q 8.295368591308595 0.07499999999999984 8.378618591308594 0.03749999999999987 Q 8.461868591308594 -2.220446049250313e-16 8.586368591308595 -2.220446049250313e-16 Q 8.673368591308595 -2.220446049250313e-16 8.757368591308595 0.025499999999999856 Q 8.841368591308594 0.050999999999999934 8.902868591308595 0.09449999999999992 L 8.874368591308595 0.15599999999999992 Q 8.811368591308595 0.11249999999999982 8.735618591308596 0.08999999999999986 Q 8.659868591308594 0.0674999999999999 8.586368591308595 0.0674999999999999 Q 8.440868591308595 0.0674999999999999 8.365868591308596 0.1259999999999999 Q 8.290868591308595 0.1844999999999999 8.290868591308595 0.27749999999999986 Q 8.290868591308595 0.34799999999999986 8.331368591308594 0.3899999999999999 Q 8.371868591308594 0.43199999999999983 8.431868591308595 0.4544999999999999 Q 8.491868591308595 0.47699999999999987 8.595368591308596 0.5024999999999998 Q 8.710868591308595 0.5309999999999999 8.779868591308595 0.5579999999999998 Q 8.848868591308594 0.5849999999999999 8.897618591308595 0.6397499999999998 Q 8.946368591308595 0.6944999999999999 8.946368591308595 0.7874999999999999 Q 8.946368591308595 0.8639999999999999 8.905118591308595 0.9269999999999998 Q 8.863868591308595 0.9899999999999999 8.778368591308595 1.0274999999999999 Q 8.692868591308596 1.065 8.568368591308595 1.065 Q 8.452868591308595 1.065 8.348618591308595 1.0252499999999998 M 9.322131774902346 0.9494999999999999 Q 9.211881774902345 0.8339999999999999 9.211881774902345 0.6119999999999999 L 9.211881774902345 0.00749999999999984 L 9.288381774902346 0.00749999999999984 L 9.288381774902346 0.6089999999999999 Q 9.288381774902346 0.8024999999999999 9.376881774902346 0.8984999999999999 Q 9.465381774902346 0.9944999999999999 9.633381774902345 0.9944999999999999 Q 9.799881774902346 0.9944999999999999 9.888381774902346 0.8984999999999999 Q 9.976881774902346 0.8024999999999999 9.976881774902346 0.6089999999999999 L 9.976881774902346 0.00749999999999984 L 10.053381774902345 0.00749999999999984 L 10.053381774902345 0.6119999999999999 Q 10.053381774902345 0.8339999999999999 9.942381774902346 0.9494999999999999 Q 9.831381774902345 1.065 9.631881774902345 1.065 Q 9.432381774902346 1.065 9.322131774902346 0.9494999999999999 M 10.42542645263672 0.00749999999999984 L 10.50192645263672 0.00749999999999984 L 10.50192645263672 0.9884999999999999 L 11.106426452636722 0.9884999999999999 L 11.106426452636722 1.0574999999999999 L 10.42542645263672 1.0574999999999999 L 10.42542645263672 0.00749999999999984 M 11.421455749511722 0.0764999999999999 L 11.043455749511722 0.0764999999999999 L 11.043455749511722 0.00749999999999984 L 11.875955749511721 0.00749999999999984 L 11.875955749511721 0.0764999999999999 L 11.497955749511721 0.0764999999999999 L 11.497955749511721 1.0574999999999999 L 11.421455749511722 1.0574999999999999 L 11.421455749511722 0.0764999999999999 M 12.676978454589847 0.7619999999999999 L 12.067978454589847 0.7619999999999999 L 11.934478454589847 1.0574999999999999 L 11.851978454589847 1.0574999999999999 L 12.334978454589848 0.00749999999999984 L 12.411478454589847 0.00749999999999984 L 12.894478454589848 1.0574999999999999 L 12.811978454589847 1.0574999999999999 L 12.676978454589847 0.7619999999999999 M 12.648478454589847 0.6974999999999999 L 12.372478454589848 0.09149999999999991 L 12.097978454589848 0.6974999999999999 L 12.648478454589847 0.6974999999999999 M 13.955004089355473 0.00749999999999984 L 13.955004089355473 1.0574999999999999 L 13.892004089355472 1.0574999999999999 L 13.176504089355472 0.14549999999999985 L 13.176504089355472 1.0574999999999999 L 13.100004089355473 1.0574999999999999 L 13.100004089355473 0.00749999999999984 L 13.164504089355473 0.00749999999999984 L 13.878504089355474 0.9194999999999999 L 13.878504089355474 0.00749999999999984 L 13.955004089355473 0.00749999999999984 M 14.537042907714849 0.0764999999999999 L 14.159042907714849 0.0764999999999999 L 14.159042907714849 0.00749999999999984 L 14.991542907714848 0.00749999999999984 L 14.991542907714848 0.0764999999999999 L 14.613542907714848 0.0764999999999999 L 14.613542907714848 1.0574999999999999 L 14.537042907714849 1.0574999999999999 L 14.537042907714849 0.0764999999999999" fill="#173054" fill-rule="nonzero"></path></g><g><path d=" M 0.2655 1.7548499999999998 L 0.2655 1.9363499999999998 L 0.21075 1.9363499999999998 L 0.21075 1.7548499999999998 L 0.00075 1.4113499999999997 L 0.06 1.4113499999999997 L 0.24 1.7060999999999997 L 0.42 1.4113499999999997 L 0.47550000000000003 1.4113499999999997 L 0.2655 1.7548499999999998 M 0.6348603515625 1.9059749999999998 Q 0.5714853515625 1.8710999999999998 0.5358603515625 1.8103499999999997 Q 0.5002353515625 1.7495999999999998 0.5002353515625 1.6738499999999998 Q 0.5002353515625 1.5980999999999999 0.5358603515625 1.5373499999999998 Q 0.5714853515625 1.4766 0.6348603515625 1.4417249999999997 Q 0.6982353515625 1.40685 0.7762353515625 1.40685 Q 0.8542353515625001 1.40685 0.9168603515625 1.44135 Q 0.9794853515624999 1.4758499999999999 1.0154853515625 1.5369749999999998 Q 1.0514853515625 1.5980999999999999 1.0514853515625 1.6738499999999998 Q 1.0514853515625 1.7495999999999998 1.0154853515625 1.8107249999999997 Q 0.9794853515624999 1.8718499999999998 0.9168603515625 1.9063499999999998 Q 0.8542353515625001 1.9408499999999997 0.7762353515625 1.9408499999999997 Q 0.6982353515625 1.9408499999999997 0.6348603515625 1.9059749999999998 M 0.8887353515625 1.863225 Q 0.9389853515625 1.8350999999999997 0.9674853515624999 1.7852249999999998 Q 0.9959853515625001 1.7353499999999997 0.9959853515625001 1.6738499999999998 Q 0.9959853515625001 1.6123499999999997 0.9674853515624999 1.5624749999999998 Q 0.9389853515625 1.5125999999999997 0.8887353515625 1.4844749999999998 Q 0.8384853515625 1.4563499999999998 0.7762353515625 1.4563499999999998 Q 0.7139853515625001 1.4563499999999998 0.6633603515625 1.4844749999999998 Q 0.6127353515625 1.5125999999999997 0.5838603515625 1.5624749999999998 Q 0.5549853515625001 1.6123499999999997 0.5549853515625001 1.6738499999999998 Q 0.5549853515625001 1.7353499999999997 0.5838603515625 1.7852249999999998 Q 0.6127353515625 1.8350999999999997 0.6633603515625 1.863225 Q 0.7139853515625001 1.8913499999999999 0.7762353515625 1.8913499999999999 Q 0.8384853515625 1.8913499999999999 0.8887353515625 1.863225 M 1.235977294921875 1.8823499999999997 Q 1.178977294921875 1.8238499999999997 1.178977294921875 1.7120999999999997 L 1.178977294921875 1.4113499999999997 L 1.2344772949218752 1.4113499999999997 L 1.2344772949218752 1.7098499999999999 Q 1.2344772949218752 1.8013499999999998 1.2757272949218752 1.8463499999999997 Q 1.3169772949218752 1.8913499999999999 1.394977294921875 1.8913499999999999 Q 1.4737272949218752 1.8913499999999999 1.5149772949218752 1.8463499999999997 Q 1.5562272949218752 1.8013499999999998 1.5562272949218752 1.7098499999999999 L 1.5562272949218752 1.4113499999999997 L 1.610227294921875 1.4113499999999997 L 1.610227294921875 1.7120999999999997 Q 1.610227294921875 1.8238499999999997 1.553602294921875 1.8823499999999997 Q 1.4969772949218751 1.9408499999999997 1.394977294921875 1.9408499999999997 Q 1.2929772949218752 1.9408499999999997 1.235977294921875 1.8823499999999997 M 2.1434714355468754 1.9363499999999998 L 2.0234714355468753 1.7675999999999998 Q 2.0032214355468754 1.7698499999999997 1.9814714355468752 1.7698499999999997 L 1.8404714355468752 1.7698499999999997 L 1.8404714355468752 1.9363499999999998 L 1.784971435546875 1.9363499999999998 L 1.784971435546875 1.4113499999999997 L 1.9814714355468752 1.4113499999999997 Q 2.0819714355468752 1.4113499999999997 2.138971435546875 1.4593499999999997 Q 2.195971435546875 1.5073499999999997 2.195971435546875 1.5913499999999998 Q 2.195971435546875 1.6528499999999997 2.1648464355468753 1.6952249999999998 Q 2.1337214355468754 1.7375999999999998 2.075971435546875 1.7563499999999999 L 2.2042214355468754 1.9363499999999998 L 2.1434714355468754 1.9363499999999998 M 2.099221435546875 1.6880999999999997 Q 2.1404714355468752 1.6535999999999997 2.1404714355468752 1.5913499999999998 Q 2.1404714355468752 1.5275999999999998 2.099221435546875 1.4934749999999997 Q 2.0579714355468752 1.4593499999999997 1.9799714355468752 1.4593499999999997 L 1.8404714355468752 1.4593499999999997 L 1.8404714355468752 1.7226 L 1.9799714355468752 1.7226 Q 2.0579714355468752 1.7226 2.099221435546875 1.6880999999999997 M 2.892756225585938 1.4593499999999997 Q 2.9497562255859378 1.5073499999999997 2.9497562255859378 1.5913499999999998 Q 2.9497562255859378 1.67535 2.892756225585938 1.7229749999999997 Q 2.8357562255859374 1.7705999999999997 2.7352562255859376 1.7705999999999997 L 2.5942562255859376 1.7705999999999997 L 2.5942562255859376 1.9363499999999998 L 2.5387562255859377 1.9363499999999998 L 2.5387562255859377 1.4113499999999997 L 2.7352562255859376 1.4113499999999997 Q 2.8357562255859374 1.4113499999999997 2.892756225585938 1.4593499999999997 M 2.8530062255859376 1.6877249999999997 Q 2.8942562255859374 1.6535999999999997 2.8942562255859374 1.5913499999999998 Q 2.8942562255859374 1.5275999999999998 2.8530062255859376 1.4934749999999997 Q 2.8117562255859374 1.4593499999999997 2.7337562255859376 1.4593499999999997 L 2.5942562255859376 1.4593499999999997 L 2.5942562255859376 1.7218499999999999 L 2.7337562255859376 1.7218499999999999 Q 2.8117562255859374 1.7218499999999999 2.8530062255859376 1.6877249999999997 M 3.3802822265625 1.7960999999999998 L 3.0877822265625 1.7960999999999998 L 3.0247822265625 1.9363499999999998 L 2.9670322265625 1.9363499999999998 L 3.2070322265624998 1.4113499999999997 L 3.2617822265625 1.4113499999999997 L 3.5017822265625 1.9363499999999998 L 3.4432822265625 1.9363499999999998 L 3.3802822265625 1.7960999999999998 M 3.3600322265625 1.7510999999999999 L 3.2340322265625 1.4690999999999999 L 3.1080322265625 1.7510999999999999 L 3.3600322265625 1.7510999999999999 M 3.9547672119140627 1.9363499999999998 L 3.8347672119140626 1.7675999999999998 Q 3.8145172119140627 1.7698499999999997 3.7927672119140627 1.7698499999999997 L 3.6517672119140627 1.7698499999999997 L 3.6517672119140627 1.9363499999999998 L 3.596267211914063 1.9363499999999998 L 3.596267211914063 1.4113499999999997 L 3.7927672119140627 1.4113499999999997 Q 3.8932672119140626 1.4113499999999997 3.9502672119140625 1.4593499999999997 Q 4.007267211914063 1.5073499999999997 4.007267211914063 1.5913499999999998 Q 4.007267211914063 1.6528499999999997 3.9761422119140626 1.6952249999999998 Q 3.9450172119140627 1.7375999999999998 3.8872672119140628 1.7563499999999999 L 4.015517211914062 1.9363499999999998 L 3.9547672119140627 1.9363499999999998 M 3.9105172119140628 1.6880999999999997 Q 3.9517672119140625 1.6535999999999997 3.9517672119140625 1.5913499999999998 Q 3.9517672119140625 1.5275999999999998 3.9105172119140628 1.4934749999999997 Q 3.8692672119140625 1.4593499999999997 3.7912672119140627 1.4593499999999997 L 3.6517672119140627 1.4593499999999997 L 3.6517672119140627 1.7226 L 3.7912672119140627 1.7226 Q 3.8692672119140625 1.7226 3.9105172119140628 1.6880999999999997 M 4.240526733398438 1.4593499999999997 L 4.056026733398438 1.4593499999999997 L 4.056026733398438 1.4113499999999997 L 4.480526733398438 1.4113499999999997 L 4.480526733398438 1.4593499999999997 L 4.296026733398438 1.4593499999999997 L 4.296026733398438 1.9363499999999998 L 4.240526733398438 1.9363499999999998 L 4.240526733398438 1.4593499999999997 M 5.015257690429689 1.4113499999999997 L 5.015257690429689 1.9363499999999998 L 4.969507690429689 1.9363499999999998 L 4.632007690429688 1.5103499999999999 L 4.632007690429688 1.9363499999999998 L 4.576507690429688 1.9363499999999998 L 4.576507690429688 1.4113499999999997 L 4.622257690429688 1.4113499999999997 L 4.960507690429688 1.8373499999999998 L 4.960507690429688 1.4113499999999997 L 5.015257690429689 1.4113499999999997 M 5.564998901367188 1.8883499999999998 L 5.564998901367188 1.9363499999999998 L 5.193748901367188 1.9363499999999998 L 5.193748901367188 1.4113499999999997 L 5.553748901367189 1.4113499999999997 L 5.553748901367189 1.4593499999999997 L 5.249248901367189 1.4593499999999997 L 5.249248901367189 1.6460999999999997 L 5.520748901367188 1.6460999999999997 L 5.520748901367188 1.6933499999999997 L 5.249248901367189 1.6933499999999997 L 5.249248901367189 1.8883499999999998 L 5.564998901367188 1.8883499999999998 M 6.061503662109376 1.9363499999999998 L 5.941503662109376 1.7675999999999998 Q 5.921253662109376 1.7698499999999997 5.899503662109376 1.7698499999999997 L 5.758503662109376 1.7698499999999997 L 5.758503662109376 1.9363499999999998 L 5.703003662109376 1.9363499999999998 L 5.703003662109376 1.4113499999999997 L 5.899503662109376 1.4113499999999997 Q 6.000003662109377 1.4113499999999997 6.057003662109376 1.4593499999999997 Q 6.1140036621093765 1.5073499999999997 6.1140036621093765 1.5913499999999998 Q 6.1140036621093765 1.6528499999999997 6.082878662109376 1.6952249999999998 Q 6.051753662109377 1.7375999999999998 5.994003662109376 1.7563499999999999 L 6.122253662109376 1.9363499999999998 L 6.061503662109376 1.9363499999999998 M 6.017253662109376 1.6880999999999997 Q 6.058503662109376 1.6535999999999997 6.058503662109376 1.5913499999999998 Q 6.058503662109376 1.5275999999999998 6.017253662109376 1.4934749999999997 Q 5.976003662109377 1.4593499999999997 5.898003662109376 1.4593499999999997 L 5.758503662109376 1.4593499999999997 L 5.758503662109376 1.7226 L 5.898003662109376 1.7226 Q 5.976003662109377 1.7226 6.017253662109376 1.6880999999999997 M 6.456788452148439 1.4113499999999997 L 6.512288452148439 1.4113499999999997 L 6.512288452148439 1.9363499999999998 L 6.456788452148439 1.9363499999999998 L 6.456788452148439 1.4113499999999997 M 7.12953991699219 1.4113499999999997 L 7.12953991699219 1.9363499999999998 L 7.08378991699219 1.9363499999999998 L 6.74628991699219 1.5103499999999999 L 6.74628991699219 1.9363499999999998 L 6.690789916992189 1.9363499999999998 L 6.690789916992189 1.4113499999999997 L 6.736539916992189 1.4113499999999997 L 7.07478991699219 1.8373499999999998 L 7.07478991699219 1.4113499999999997 L 7.12953991699219 1.4113499999999997 M 7.8412990722656275 1.7960999999999998 L 7.548799072265628 1.7960999999999998 L 7.485799072265627 1.9363499999999998 L 7.428049072265628 1.9363499999999998 L 7.668049072265628 1.4113499999999997 L 7.7227990722656275 1.4113499999999997 L 7.962799072265628 1.9363499999999998 L 7.904299072265628 1.9363499999999998 L 7.8412990722656275 1.7960999999999998 M 7.821049072265628 1.7510999999999999 L 7.695049072265628 1.4690999999999999 L 7.569049072265628 1.7510999999999999 L 7.821049072265628 1.7510999999999999 M 8.13715173339844 1.9063499999999998 Q 8.074526733398441 1.8718499999999998 8.03890173339844 1.8107249999999997 Q 8.00327673339844 1.7495999999999998 8.00327673339844 1.6738499999999998 Q 8.00327673339844 1.5980999999999999 8.03890173339844 1.5369749999999998 Q 8.074526733398441 1.4758499999999999 8.13752673339844 1.44135 Q 8.20052673339844 1.40685 8.27852673339844 1.40685 Q 8.33702673339844 1.40685 8.38652673339844 1.4263499999999998 Q 8.43602673339844 1.4458499999999999 8.47052673339844 1.4833499999999997 L 8.43527673339844 1.5185999999999997 Q 8.37377673339844 1.4563499999999998 8.28002673339844 1.4563499999999998 Q 8.217776733398441 1.4563499999999998 8.166776733398441 1.4848499999999998 Q 8.115776733398441 1.5133499999999998 8.08690173339844 1.5628499999999999 Q 8.05802673339844 1.6123499999999997 8.05802673339844 1.6738499999999998 Q 8.05802673339844 1.7353499999999997 8.08690173339844 1.7848499999999998 Q 8.115776733398441 1.8343499999999997 8.166776733398441 1.86285 Q 8.217776733398441 1.8913499999999999 8.28002673339844 1.8913499999999999 Q 8.37452673339844 1.8913499999999999 8.43527673339844 1.8283499999999997 L 8.47052673339844 1.8635999999999997 Q 8.43602673339844 1.9010999999999998 8.38615173339844 1.9209749999999999 Q 8.33627673339844 1.9408499999999997 8.27777673339844 1.9408499999999997 Q 8.19977673339844 1.9408499999999997 8.13715173339844 1.9063499999999998 M 8.912268310546878 1.7960999999999998 L 8.619768310546878 1.7960999999999998 L 8.556768310546879 1.9363499999999998 L 8.499018310546878 1.9363499999999998 L 8.739018310546879 1.4113499999999997 L 8.793768310546879 1.4113499999999997 L 9.03376831054688 1.9363499999999998 L 8.975268310546879 1.9363499999999998 L 8.912268310546878 1.7960999999999998 M 8.892018310546879 1.7510999999999999 L 8.766018310546878 1.4690999999999999 L 8.640018310546878 1.7510999999999999 L 8.892018310546879 1.7510999999999999 M 9.12825329589844 1.4113499999999997 L 9.342003295898442 1.4113499999999997 Q 9.425253295898441 1.4113499999999997 9.489003295898442 1.4447249999999998 Q 9.552753295898441 1.4780999999999997 9.58800329589844 1.5377249999999998 Q 9.623253295898442 1.5973499999999998 9.623253295898442 1.6738499999999998 Q 9.623253295898442 1.7503499999999999 9.58800329589844 1.8099749999999997 Q 9.552753295898441 1.8695999999999997 9.489003295898442 1.9029749999999999 Q 9.425253295898441 1.9363499999999998 9.342003295898442 1.9363499999999998 L 9.12825329589844 1.9363499999999998 L 9.12825329589844 1.4113499999999997 M 9.339003295898442 1.8883499999999998 Q 9.40800329589844 1.8883499999999998 9.459753295898441 1.8609749999999998 Q 9.511503295898441 1.8335999999999997 9.54000329589844 1.7852249999999998 Q 9.568503295898442 1.7368499999999998 9.568503295898442 1.6738499999999998 Q 9.568503295898442 1.6108499999999997 9.54000329589844 1.5624749999999998 Q 9.511503295898441 1.5140999999999998 9.459753295898441 1.4867249999999999 Q 9.40800329589844 1.4593499999999997 9.339003295898442 1.4593499999999997 L 9.183753295898441 1.4593499999999997 L 9.183753295898441 1.8883499999999998 L 9.339003295898442 1.8883499999999998 M 10.126494873046878 1.8883499999999998 L 10.126494873046878 1.9363499999999998 L 9.755244873046879 1.9363499999999998 L 9.755244873046879 1.4113499999999997 L 10.11524487304688 1.4113499999999997 L 10.11524487304688 1.4593499999999997 L 9.810744873046879 1.4593499999999997 L 9.810744873046879 1.6460999999999997 L 10.082244873046879 1.6460999999999997 L 10.082244873046879 1.6933499999999997 L 9.810744873046879 1.6933499999999997 L 9.810744873046879 1.8883499999999998 L 10.126494873046878 1.8883499999999998 M 10.809749633789068 1.4113499999999997 L 10.809749633789068 1.9363499999999998 L 10.756499633789067 1.9363499999999998 L 10.756499633789067 1.5163499999999999 L 10.550249633789067 1.8695999999999997 L 10.523999633789067 1.8695999999999997 L 10.317749633789067 1.5185999999999997 L 10.317749633789067 1.9363499999999998 L 10.264499633789066 1.9363499999999998 L 10.264499633789066 1.4113499999999997 L 10.310249633789066 1.4113499999999997 L 10.538249633789066 1.8005999999999998 L 10.763999633789066 1.4113499999999997 L 10.809749633789068 1.4113499999999997 M 10.98826245117188 1.4113499999999997 L 11.04376245117188 1.4113499999999997 L 11.04376245117188 1.9363499999999998 L 10.98826245117188 1.9363499999999998 L 10.98826245117188 1.4113499999999997 M 11.30963891601563 1.9063499999999998 Q 11.24701391601563 1.8718499999999998 11.211388916015629 1.8107249999999997 Q 11.17576391601563 1.7495999999999998 11.17576391601563 1.6738499999999998 Q 11.17576391601563 1.5980999999999999 11.211388916015629 1.5369749999999998 Q 11.24701391601563 1.4758499999999999 11.31001391601563 1.44135 Q 11.37301391601563 1.40685 11.45101391601563 1.40685 Q 11.50951391601563 1.40685 11.55901391601563 1.4263499999999998 Q 11.60851391601563 1.4458499999999999 11.64301391601563 1.4833499999999997 L 11.60776391601563 1.5185999999999997 Q 11.54626391601563 1.4563499999999998 11.45251391601563 1.4563499999999998 Q 11.39026391601563 1.4563499999999998 11.33926391601563 1.4848499999999998 Q 11.28826391601563 1.5133499999999998 11.259388916015629 1.5628499999999999 Q 11.23051391601563 1.6123499999999997 11.23051391601563 1.6738499999999998 Q 11.23051391601563 1.7353499999999997 11.259388916015629 1.7848499999999998 Q 11.28826391601563 1.8343499999999997 11.33926391601563 1.86285 Q 11.39026391601563 1.8913499999999999 11.45251391601563 1.8913499999999999 Q 11.54701391601563 1.8913499999999999 11.60776391601563 1.8283499999999997 L 11.64301391601563 1.8635999999999997 Q 11.60851391601563 1.9010999999999998 11.55863891601563 1.9209749999999999 Q 11.50876391601563 1.9408499999999997 11.45026391601563 1.9408499999999997 Q 11.37226391601563 1.9408499999999997 11.30963891601563 1.9063499999999998 M 11.946027465820318 1.92135 Q 11.907777465820319 1.9018499999999998 11.883777465820318 1.8658499999999998 L 11.916777465820317 1.8283499999999997 Q 11.960277465820317 1.8928499999999997 12.030027465820318 1.8928499999999997 Q 12.127527465820318 1.8928499999999997 12.127527465820318 1.7773499999999998 L 12.127527465820318 1.4593499999999997 L 11.935527465820318 1.4593499999999997 L 11.935527465820318 1.4113499999999997 L 12.182277465820318 1.4113499999999997 L 12.182277465820318 1.7750999999999997 Q 12.182277465820318 1.8575999999999997 12.143652465820319 1.8992249999999997 Q 12.105027465820317 1.9408499999999997 12.029277465820318 1.9408499999999997 Q 11.984277465820318 1.9408499999999997 11.946027465820318 1.92135 M 12.444384887695318 1.9059749999999998 Q 12.381009887695319 1.8710999999999998 12.345384887695317 1.8103499999999997 Q 12.309759887695318 1.7495999999999998 12.309759887695318 1.6738499999999998 Q 12.309759887695318 1.5980999999999999 12.345384887695317 1.5373499999999998 Q 12.381009887695319 1.4766 12.444384887695318 1.4417249999999997 Q 12.507759887695318 1.40685 12.585759887695318 1.40685 Q 12.663759887695319 1.40685 12.726384887695318 1.44135 Q 12.789009887695318 1.4758499999999999 12.825009887695318 1.5369749999999998 Q 12.861009887695317 1.5980999999999999 12.861009887695317 1.6738499999999998 Q 12.861009887695317 1.7495999999999998 12.825009887695318 1.8107249999999997 Q 12.789009887695318 1.8718499999999998 12.726384887695318 1.9063499999999998 Q 12.663759887695319 1.9408499999999997 12.585759887695318 1.9408499999999997 Q 12.507759887695318 1.9408499999999997 12.444384887695318 1.9059749999999998 M 12.698259887695318 1.863225 Q 12.748509887695318 1.8350999999999997 12.777009887695318 1.7852249999999998 Q 12.805509887695319 1.7353499999999997 12.805509887695319 1.6738499999999998 Q 12.805509887695319 1.6123499999999997 12.777009887695318 1.5624749999999998 Q 12.748509887695318 1.5125999999999997 12.698259887695318 1.4844749999999998 Q 12.648009887695318 1.4563499999999998 12.585759887695318 1.4563499999999998 Q 12.523509887695319 1.4563499999999998 12.472884887695319 1.4844749999999998 Q 12.422259887695319 1.5125999999999997 12.393384887695317 1.5624749999999998 Q 12.364509887695318 1.6123499999999997 12.364509887695318 1.6738499999999998 Q 12.364509887695318 1.7353499999999997 12.393384887695317 1.7852249999999998 Q 12.422259887695319 1.8350999999999997 12.472884887695319 1.863225 Q 12.523509887695319 1.8913499999999999 12.585759887695318 1.8913499999999999 Q 12.648009887695318 1.8913499999999999 12.698259887695318 1.863225 M 13.045501831054693 1.8823499999999997 Q 12.988501831054693 1.8238499999999997 12.988501831054693 1.7120999999999997 L 12.988501831054693 1.4113499999999997 L 13.044001831054693 1.4113499999999997 L 13.044001831054693 1.7098499999999999 Q 13.044001831054693 1.8013499999999998 13.085251831054693 1.8463499999999997 Q 13.126501831054693 1.8913499999999999 13.204501831054694 1.8913499999999999 Q 13.283251831054693 1.8913499999999999 13.324501831054693 1.8463499999999997 Q 13.365751831054693 1.8013499999999998 13.365751831054693 1.7098499999999999 L 13.365751831054693 1.4113499999999997 L 13.419751831054693 1.4113499999999997 L 13.419751831054693 1.7120999999999997 Q 13.419751831054693 1.8238499999999997 13.363126831054693 1.8823499999999997 Q 13.306501831054693 1.9408499999999997 13.204501831054694 1.9408499999999997 Q 13.102501831054694 1.9408499999999997 13.045501831054693 1.8823499999999997 M 13.952995971679695 1.9363499999999998 L 13.832995971679694 1.7675999999999998 Q 13.812745971679695 1.7698499999999997 13.790995971679694 1.7698499999999997 L 13.649995971679694 1.7698499999999997 L 13.649995971679694 1.9363499999999998 L 13.594495971679693 1.9363499999999998 L 13.594495971679693 1.4113499999999997 L 13.790995971679694 1.4113499999999997 Q 13.891495971679694 1.4113499999999997 13.948495971679694 1.4593499999999997 Q 14.005495971679693 1.5073499999999997 14.005495971679693 1.5913499999999998 Q 14.005495971679693 1.6528499999999997 13.974370971679694 1.6952249999999998 Q 13.943245971679694 1.7375999999999998 13.885495971679694 1.7563499999999999 L 14.013745971679693 1.9363499999999998 L 13.952995971679695 1.9363499999999998 M 13.908745971679693 1.6880999999999997 Q 13.949995971679694 1.6535999999999997 13.949995971679694 1.5913499999999998 Q 13.949995971679694 1.5275999999999998 13.908745971679693 1.4934749999999997 Q 13.867495971679693 1.4593499999999997 13.789495971679694 1.4593499999999997 L 13.649995971679694 1.4593499999999997 L 13.649995971679694 1.7226 L 13.789495971679694 1.7226 Q 13.867495971679693 1.7226 13.908745971679693 1.6880999999999997 M 14.58301281738282 1.4113499999999997 L 14.58301281738282 1.9363499999999998 L 14.53726281738282 1.9363499999999998 L 14.199762817382819 1.5103499999999999 L 14.199762817382819 1.9363499999999998 L 14.144262817382819 1.9363499999999998 L 14.144262817382819 1.4113499999999997 L 14.190012817382819 1.4113499999999997 L 14.528262817382819 1.8373499999999998 L 14.528262817382819 1.4113499999999997 L 14.58301281738282 1.4113499999999997 M 15.132754028320319 1.8883499999999998 L 15.132754028320319 1.9363499999999998 L 14.761504028320319 1.9363499999999998 L 14.761504028320319 1.4113499999999997 L 15.12150402832032 1.4113499999999997 L 15.12150402832032 1.4593499999999997 L 14.81700402832032 1.4593499999999997 L 14.81700402832032 1.6460999999999997 L 15.088504028320319 1.6460999999999997 L 15.088504028320319 1.6933499999999997 L 14.81700402832032 1.6933499999999997 L 14.81700402832032 1.8883499999999998 L 15.132754028320319 1.8883499999999998 M 15.444029663085944 1.7548499999999998 L 15.444029663085944 1.9363499999999998 L 15.389279663085944 1.9363499999999998 L 15.389279663085944 1.7548499999999998 L 15.179279663085945 1.4113499999999997 L 15.238529663085945 1.4113499999999997 L 15.418529663085945 1.7060999999999997 L 15.598529663085944 1.4113499999999997 L 15.654029663085945 1.4113499999999997 L 15.444029663085944 1.7548499999999998" fill="#173054" fill-rule="nonzero"></path></g><g clip-path="url(#SvgjsClipPath1005)"><g clip-path="url(#a6dfd6f11-551b-476c-9af9-5d32a63e5b7446284b35-4ace-466c-ac26-e14cd08b4b53)"><path d=" M 14.036998059804741 -6.188362395349292 C 14.036998059804741 -9.61802356127101 11.256939723009463 -12.397922837628206 7.827596677963909 -12.397922837628206 C 4.397935512042191 -12.397922837628206 1.617877175246912 -9.61802356127101 1.617877175246912 -6.188362395349292 C 1.617877175246912 -3.3904892894888423 3.4687044327677867 -1.0263739982777071 6.012558019011459 -0.25 L 6.012558019011459 -0.9719753284537003 C 6.012558019011459 -1.224086122813496 6.21456477537546 -1.4280016044344794 6.4641306027259455 -1.4280016044344794 L 7.116119338423614 -1.4280016044344794 L 7.116119338423614 -1.7819110791666866 L 6.958649504722542 -1.7819110791666866 C 6.857646126540542 -1.7819110791666866 6.777479665747269 -1.8630319025884496 6.777479665747269 -1.9619674950753865 C 6.777479665747269 -2.0639252358858755 6.857646126540541 -2.1450460593076404 6.958649504722542 -2.1450460593076404 L 8.696384790767194 -2.1450460593076404 C 8.797388168949194 -2.1450460593076404 8.877554629742468 -2.0639252358858755 8.877554629742468 -1.9619674950753865 C 8.877554629742468 -1.8630319025884496 8.797388168949196 -1.7819110791666866 8.696384790767194 -1.7819110791666866 L 8.541778044951597 -1.7819110791666866 L 8.541778044951597 -1.4280016044344794 L 9.193766780649264 -1.4280016044344794 C 9.440310459676194 -1.4280016044344794 9.642317216040196 -1.224086122813496 9.642317216040196 -0.9719753284537003 L 9.642317216040196 -0.25 C 12.186011741845785 -1.0263739982777071 14.036998059804741 -3.3903302290507593 14.036998059804741 -6.188362395349292 M 9.530656788506707 -7.2768129731436675 C 9.496935975633347 -6.856257174855149 9.061587556603214 -6.099765731337678 8.910480140425419 -5.9836516115378995 C 9.13523253943513 -6.110422780689166 9.446831937637551 -6.619575242989296 9.50711584367059 -6.7162839893430855 C 9.497254096509511 -5.998921413593759 9.464010464950396 -5.690821345029138 9.247688269159026 -4.941805742101518 C 9.205537253067323 -4.795788259942342 8.886621074713135 -4.037229030729808 8.760804268190359 -3.9176155812922264 C 8.820133811594905 -3.929226993272204 8.864829794695916 -3.971378009363905 8.915888195320203 -4.01130217932246 C 8.689386131491592 -3.4821081018240108 8.389875326583391 -2.859704607609574 8.023877258556963 -2.3554830188899807 L 8.002563159853988 -2.1450460593076404 L 7.879132259902442 -2.1450460593076404 L 7.879450380778606 -2.1638151910013033 C 7.889312127939683 -3.172735549754732 7.892970518015567 -4.181814968946245 7.892970518015567 -5.190894388137757 C 7.892970518015567 -8.047301735212343 7.861158430399188 -10.363857955436993 7.822188623069127 -10.363857955436993 C 7.7830597553009815 -10.363857955436993 7.751247667684604 -8.047301735212343 7.751247667684604 -5.190894388137757 C 7.751247667684604 -4.0698364205365944 7.756178541265141 -3.0321261224903413 7.764608744483482 -2.184970229266195 L 7.764926865359646 -2.1450460593076404 L 7.641495965408099 -2.1450460593076404 L 7.6184322018862245 -2.37234342532666 C 7.236231935681645 -2.87811174457258 6.916935263844761 -3.42846853724693 6.667568903032679 -4.011302179322467 C 6.718627303656971 -3.971378009363905 6.763323286757982 -3.929226993272204 6.822652830162529 -3.9176155812922246 C 6.696836023639753 -4.037229030729806 6.377919845285563 -4.795788259942341 6.335768829193862 -4.941805742101517 C 6.1196056938405725 -5.690821345029137 5.983449958842474 -6.504574546256089 5.973588211681397 -7.221778061567332 C 6.033872117714433 -7.125069315213542 6.341654065402892 -6.675246396317957 6.566406464412602 -6.5693121445554175 C 6.443611806213382 -6.651864511919918 6.048028496703722 -7.158153886334575 6.014307683830361 -7.578868745061175 C 6.044688227504002 -8.441294440341185 6.215041956689706 -9.4406711728097 6.454746036879116 -10.11286058414377 C 6.591378953191459 -9.829733004358005 6.590424590562968 -9.626294704051267 6.809291753363649 -9.330760410095115 C 6.6066487552473205 -9.71155109886316 6.608875601380467 -10.347792851190722 6.712901127886022 -10.551549272373624 C 7.018933410755579 -11.163454777674655 7.397497253390479 -11.605960916418473 7.791808079395485 -11.80001465087838 C 8.567068654606619 -11.418428659919925 9.118372132998449 -10.495241877292633 9.2470520274067 -9.437808084924228 C 9.266775521728853 -9.208761054086304 9.217307725485384 -8.811905261071988 9.20585537394349 -8.727126047574341 C 9.242280214264241 -8.812064321510071 9.331513120028184 -8.966193886011423 9.370801048234409 -9.136388554759046 C 9.497254096509511 -8.47612867628112 9.515068865574683 -7.719478172325567 9.530656788506707 -7.276812973143666" fill="#173054" transform="matrix(1,0,0,1,0,0)" fill-rule="nonzero"></path></g><g clip-path="url(#a6dfd6f11-551b-476c-9af9-5d32a63e5b7446284b35-4ace-466c-ac26-e14cd08b4b53)"><path d=" M 9.370641987796326 -9.136547615197127 C 9.33151312002818 -8.966352946449504 9.242280214264241 -8.812064321510071 9.205855373943487 -8.727126047574341 C 9.2171486650473 -8.812064321510071 9.26661646129077 -9.208920114524387 9.246892966968614 -9.43796714536231 C 9.118213072560366 -10.495400937730716 8.567068654606615 -11.418587720358008 7.791649018957401 -11.80001465087838 C 7.397338192952396 -11.605960916418473 7.018933410755578 -11.163613838112738 6.712901127886021 -10.551708332811705 C 6.608716540942383 -10.347792851190722 6.606489694809237 -9.711710159301242 6.809291753363648 -9.330760410095117 C 6.590424590562965 -9.62645376448935 6.591378953191457 -9.829733004358006 6.454586976441031 -10.113019644581852 C 6.2148828962516225 -9.440671172809703 6.044529167065919 -8.441453500779268 6.014307683830359 -7.5790278054992575 C 6.047869436265637 -7.158312946772659 6.44361180621338 -6.652023572358003 6.5664064644126 -6.569312144555418 C 6.341495004964807 -6.67540545675604 6.033872117714432 -7.125228375651626 5.973588211681395 -7.221937122005414 C 5.98329089840439 -6.504733606694171 6.119446633402489 -5.690821345029139 6.335609768755777 -4.9419648025396 C 6.377760784847478 -4.795947320380424 6.696676963201668 -4.037388091167889 6.822493769724443 -3.9177746417303076 C 6.7631642263198986 -3.929386053710287 6.71862730365697 -3.9713780093639066 6.6674098425946005 -4.011461239760541 C 6.916772536382236 -3.42859280774616 7.236126471003441 -2.8782293786883066 7.618432201886218 -2.3725024857647483 L 7.641336904970015 -2.1450460593076404 L 7.764767804921561 -2.1450460593076404 L 7.764449684045398 -2.184970229266195 C 7.756178541265139 -3.0322851829284243 7.7512476676846 -4.069995480974676 7.7512476676846 -5.191053448575839 C 7.7512476676846 -8.047301735212343 7.782900694862897 -10.363857955436993 7.822029562631042 -10.363857955436993 C 7.861158430399186 -10.363857955436993 7.892970518015565 -8.047301735212343 7.892970518015565 -5.191053448575839 C 7.892970518015565 -4.181974029384326 7.889153067501599 -3.172894610192815 7.879291320340522 -2.1639742514393863 L 7.87913225990244 -2.1450460593076404 L 8.002563159853988 -2.1450460593076404 L 8.023718198118878 -2.3556420793280637 C 8.389716266145307 -2.8598636680476552 8.689227071053507 -3.482267162262092 8.9158881953202 -4.011461239760539 C 8.864670734257832 -3.971378009363903 8.820133811594904 -3.929386053710285 8.760645207752276 -3.9177746417303076 C 8.886621074713133 -4.037388091167889 9.20537819262924 -4.7959473203804235 9.247529208720941 -4.941964802539599 C 9.463851404512313 -5.690821345029138 9.49725409650951 -5.9990804740318415 9.507115843670588 -6.716443049781168 C 9.446831937637551 -6.619734303427377 9.135232539435128 -6.110581841127247 8.910321079987336 -5.98381067197598 C 9.061428496165131 -6.099765731337678 9.496776915195266 -6.8564162352932305 9.530656788506707 -7.276972033581748 C 9.5149098051366 -7.719478172325567 9.497095036071428 -8.4762877367192 9.370641987796326 -9.136547615197127" fill="#3a868f" transform="matrix(1,0,0,1,0,0)" fill-rule="nonzero"></path></g></g></g><defs><clipPath id="SvgjsClipPath1005"><path d=" M 1.617877175246912 -12.39811226834696 h 12.419032636810861 v 12.14811226834696 h -12.419032636810861 Z"></path></clipPath><clipPath id="a6dfd6f11-551b-476c-9af9-5d32a63e5b7446284b35-4ace-466c-ac26-e14cd08b4b53"><path d=" M 1.617877175246912 -0.25 L 14.036998059804741 -0.25 L 14.036998059804741 -12.398081898066286 L 1.617877175246912 -12.398081898066286 Z"></path></clipPath></defs></svg>